<svg width="64" height="24" viewBox="0 0 64 24" fill="none" xmlns="http://www.w3.org/2000/svg">
<path d="M39.8796 7.75082C39.8763 10.643 37.9696 12.724 34.3824 12.7206L31.3684 12.7172L31.3652 18.9636L28.8164 18.9602L28.8295 2.7605L34.4348 2.76392C38.0024 2.77419 39.8828 4.85862 39.8796 7.75082ZM37.2456 7.75082C37.2456 6.08396 36.1842 4.97157 34.6117 4.97157L31.3783 4.96815L31.375 10.4993L34.6052 10.5027C36.1809 10.5027 37.2424 9.41769 37.2456 7.75082Z" fill="#221F1F"/>
<path d="M50.5026 11.7118L50.4961 18.9137L48.1481 18.9103V16.9532C47.2607 18.3351 45.8428 19.1826 44.2283 19.1826C42.126 19.1826 40.7539 17.9607 40.7539 16.0955C40.7539 14.3019 42.2177 13.1515 44.8964 12.6001L46.3569 12.2802C47.7061 12.0045 48.1514 11.705 48.1514 11.0175C48.1514 10.0747 47.2443 9.51989 45.6954 9.51989C44.1661 9.51989 42.5059 10.347 41.5104 11.3816L41.5136 8.80515C42.6205 7.93044 44.2382 7.35864 45.9639 7.35864C48.8227 7.35864 50.5026 8.97192 50.5026 11.7118ZM48.1514 14.1487V13.2059C47.729 13.4816 47.133 13.7573 46.334 13.9411L45.5808 14.1249C43.986 14.4925 43.2558 14.9962 43.2558 15.8505C43.2558 16.6776 43.8288 17.1847 44.7392 17.1847C46.7335 17.1847 48.1514 16.0581 48.1514 14.1487Z" fill="#221F1F"/>
<path d="M63.4313 7.58787L56.4793 23.9997L54.012 23.9963L56.639 18.0039L51.7109 7.57764L54.4878 7.58105L57.8775 15.0776L60.8565 7.58446L63.4313 7.58787Z" fill="#221F1F"/>
<ellipse cx="12.0057" cy="11.9998" rx="12.0057" ry="11.9996" fill="#06BA52"/>
<path d="M24.0112 12.054C23.9821 18.6805 18.5825 24.0326 11.9516 23.9993C5.32067 23.9701 -0.0290012 18.5722 0.000118316 11.9415C0.0292378 5.31913 5.42883 -0.0329213 12.0598 0.000398881C18.6907 0.029554 24.0403 5.42742 24.0112 12.054ZM16.3237 17.9516C10.8534 17.6309 8.94397 20.4132 8.61949 20.9671C9.58043 21.6169 10.6287 22.0334 11.7186 22.0542C13.4783 22.0875 15.0549 20.2257 16.3237 17.9516ZM23.6868 12.054C23.7159 5.60235 18.5076 0.350261 12.0556 0.321106C10.7203 0.316941 9.439 0.537686 8.24094 0.945858C8.78173 1.95379 8.9814 3.35324 9.04796 3.84055C8.46557 2.691 6.80992 1.17494 4.38468 3.14916C2.4004 4.76518 0.316273 7.764 0.316273 11.9457C0.316273 18.3973 5.49122 23.6494 11.9433 23.6786C18.4036 23.7119 23.6576 18.5056 23.6868 12.054ZM11.3858 5.33163C12.5465 3.6198 16.6066 0.441892 17.555 5.94805C15.9992 3.549 13.0748 4.18208 11.3858 5.33163ZM9.023 10.5337C9.46396 9.93814 10.0047 9.33838 10.6371 8.7761C12.846 6.82271 15.2712 6.09383 16.0491 7.15174C16.5234 7.79316 16.2821 8.94687 15.525 10.188C15.7413 9.51748 15.7288 8.91355 15.4376 8.47622C14.6888 7.34333 12.3676 7.74734 10.2543 9.38003C9.79675 9.74239 9.38492 10.1297 9.023 10.5337ZM5.34979 11.5084C4.27653 11.3043 3.6983 9.59661 4.06021 7.69736C4.42212 5.79811 5.5869 4.42365 6.656 4.62774C7.72927 4.83182 8.3075 6.53948 7.94558 8.43874C7.58367 10.338 6.42305 11.7124 5.34979 11.5084ZM20.2257 9.21759C20.2257 9.21759 16.6357 22.4915 11.7644 22.3957C6.88896 22.2999 2.81639 14.9737 2.91623 12.5954C2.91623 12.5954 9.97563 16.0774 20.2257 9.21759ZM4.34724 7.74734C4.02277 9.49249 4.497 11.0502 5.41219 11.2251C6.32737 11.4042 7.33407 10.1339 7.65855 8.38876C7.98302 6.64361 7.50879 5.08589 6.59361 4.91096C5.67842 4.73186 4.67172 6.0022 4.34724 7.74734ZM6.30241 9.22176C5.92802 9.13846 5.72418 8.58451 5.8157 7.9431C5.99874 7.98058 6.19009 7.88479 6.26497 7.70569C6.35233 7.50577 6.26497 7.27669 6.07362 7.1809C6.28577 6.82271 6.58113 6.61446 6.85568 6.67693C7.26335 6.7644 7.46719 7.40581 7.31327 8.1097C7.15936 8.81359 6.70592 9.30923 6.30241 9.22176Z" fill="#221F1F"/>
</svg>
